# xmcd CD database file
#
# Track frame offsets:
#	150
#	12902
#	26120
#	37145
#	50822
#	64485
#	77037
#	90482
#	103090
#	116352
#	128545
#	145577
#	161770
#	173607
#	196882
#	212475
#
# Disc length: 3202 seconds
#
# Revision: 0
# Processed by: cddbd v1.5.1PL0 Copyright (c) Steve Scherf et al.
# Submitted via: CDex 1.51
#
DISCID=d70c8010
DTITLE=B.B.king - The very best of B.B.king
DYEAR=1900
DGENRE=Blues
TTITLE0=Everyday I Have The Blues
TTITLE1=When My Heart Beats Like A Hammer
TTITLE2=You Don't Know
TTITLE3=Rock Me Baby
TTITLE4=Three O'Clock Blues
TTITLE5=Why Do Things Happen To Me
TTITLE6=Crying Won't Help You
TTITLE7=Ten Long Years
TTITLE8=Troubles,Troubles,Troubles
TTITLE9=Worry Worry
TTITLE10=Blue Shadows
TTITLE11=A Woman Don't Care
TTITLE12=You Know I Go For You
TTITLE13=You Done Lost Your Good Thing Now
TTITLE14=5 Long Years
TTITLE15=Sweet Sixteen (Parrt 1 and 2)
EXTD=
EXTT0=
EXTT1=
EXTT2=
EXTT3=
EXTT4=
EXTT5=
EXTT6=
EXTT7=
EXTT8=
EXTT9=
EXTT10=
EXTT11=
EXTT12=
EXTT13=
EXTT14=
EXTT15=
PLAYORDER=
